<svg version="1.2" xmlns="http://www.w3.org/2000/svg" viewBox="0 0 512 512" width="512" height="512">
	<title>snigdhaos</title>
	<style>
		.s0 { fill: #000000 } 
		.s1 { fill: #bd4b4b } 
	</style>
	<filter id="f0">
		<feFlood flood-color="#bd4b4b" flood-opacity="1" />
		<feBlend mode="normal" in2="SourceGraphic"/>
		<feComposite in2="SourceAlpha" operator="in" />
	</filter>
	<g id="graphics" filter="url(#f0)">
		<path id="Layer" class="s0" d="m288.1 53.7c-12.7-3.9-25.8-6.1-39-6.6-13.2-0.5-26.4 0.8-39.3 3.9-12.8 3.1-25.2 7.9-36.8 14.2-11.6 6.4-22.3 14.3-31.7 23.6q3.7 1.1 7.2 2.9 3.6 1.8 6.8 4.1 3.2 2.3 6 5.1 2.7 2.8 5 6 1.7 2.3 3 4.7 1.4 2.4 2.5 5 1.1 2.5 2 5.2 0.9 2.6 1.5 5.4 7.9-4.3 16.2-7.6 8.4-3.3 17.1-5.5 8.7-2.3 17.7-3.4 8.9-1.2 17.9-1.2c6.8-0.2 13.6 0.3 20.3 1.4 6.8 1.1 13.4 2.9 19.7 5.3 6.4 2.4 12.5 5.4 18.3 9.1 5.8 3.6 11.2 7.7 16.2 12.4 40.8 37.5 27.1 66.9 20.7 115.6-1 5.6-1.2 11.2-0.7 16.8 0.6 5.6 1.9 11.1 3.9 16.4 2.1 5.2 4.9 10.2 8.3 14.6 3.4 4.5 7.5 8.5 12 11.8-6.4-30 15.9-75.6 18.4-80.7 5.7-17.9 7.9-36.7 6.3-55.3-1.6-18.7-6.9-36.8-15.6-53.4-8.7-16.7-20.6-31.4-35-43.3-14.4-12-31-21-48.9-26.5z"/>
		<path id="Layer" class="s0" d="m310.4 146.2c-20.3-20-48.8-26.7-76.3-24.5l-8.2 5.8c9.9 0.4 19.7 2.1 29.1 5.1 9.4 3 18.4 7.3 26.6 12.7 8.3 5.4 15.9 11.9 22.4 19.3 6.6 7.4 12.1 15.6 16.5 24.5q0.8 1.7 1.6 3.5 0.8 1.8 1.5 3.6 0.8 1.8 1.4 3.6 0.7 1.9 1.3 3.7l8.5-16c-2.2-17.6-10-26.6-24.4-41.3z"/>
		<path id="Layer" class="s0" d="m313.4 202.6c-39.6-100.1-187-74.9-189.4 34.5 0.1 7.6-0.1 23.1 0 30.6 0 1.2 0.4 2.3 1.1 3.3 0.7 1 1.7 1.7 2.8 2.1 1.1 0.4 2.3 0.5 3.5 0.3 1.2-0.3 2.2-0.9 3-1.8l28.5-32.1q0.2-0.2 0.4-0.4 0.3-0.2 0.5-0.3 0.3-0.2 0.6-0.2 0.3-0.1 0.6-0.1l5.8-0.4-12.4 20.2q-0.7 1.1-1.2 2.4-0.5 1.3-0.8 2.6-0.2 1.4-0.2 2.7 0 1.4 0.2 2.7c1.6 8.5 3.3 29.7-14.2 43.8q-1.3 1-2.3 2.3-1.1 1.3-1.8 2.7-0.7 1.5-1.1 3.1-0.4 1.6-0.4 3.3v28.9c0 2 0.4 3.9 1.1 5.7 0.8 1.8 1.9 3.5 3.3 4.8 1.3 1.4 3 2.5 4.8 3.2 1.8 0.8 3.7 1.2 5.7 1.2 66.7-13.5 103.8-52.6 112-65.6q0.2-0.3 0.5-0.5 0.3-0.3 0.6-0.4 0.3-0.2 0.7-0.3 0.3-0.1 0.7-0.1h36c2.3 0 4.6-0.5 6.7-1.4 2.2-0.8 4.1-2.1 5.7-3.8 1.7-1.6 3-3.6 3.9-5.7 0.9-2.1 1.4-4.4 1.4-6.7-0.9-22.2 3.1-60.1-6.3-80.6z"/>
	</g>
	<g id="texts">
		<path id="Welcome" class="s1" aria-label="Welcome"  d="m151.5 392.8h1.5l0.3 0.1 0.2-0.1 1.2 0.1 0.5-0.1 0.1 0.1h0.1v-0.1h0.1l0.5 0.1 0.3-0.1 0.3 0.1h5.3v0.2q0 0.2-0.7 0.3h0.1l0.6-0.1v13l0.1 0.5-0.1 0.3 0.1 0.2h-0.1l0.1 0.1-0.1 0.9v0.2l0.1 0.3-0.1 0.3 0.1 0.6-0.2 0.9 0.2 0.7v1.5l-0.1 0.5 0.1 0.7v2.8l-0.1 0.9h0.1v0.1l-0.2 1 0.2 0.4-0.1 1.4 0.1 1.8-0.1 0.7 0.1 0.3-0.1 0.2 0.1 0.4q0 1.9-0.5 6.2 0.2 0 0.2 0.1 0 2.2-1.1 3-1.2 1.5-4.3 1.5h-0.3l-0.3 0.1-0.4-0.1-0.1 0.1-0.1-0.1-0.9 0.1h-3.4l-3.1-0.3-3.3 0.2-0.6-0.1-0.1 0.1q-2.4 0-5.9-0.6-2.1-2.1-2.1-4l0.1-0.4h-0.1l-0.1 0.1v0.3q0 1.6-0.9 2.5 0 0.2-2.9 1.9 0 0.1-0.7 0.3l-1.8-0.1-4.3 0.1h-0.1-5.1l-0.3 0.1-0.1-0.1-2.1 0.1h-3.6q-0.7 0-1.9-0.4v-0.3q0-0.2-0.7-0.2-2-1.8-2-3.6v-0.3l0.1-0.2-0.1-0.2v-0.2-0.5-0.4-0.5-0.1-0.3l0.1-9.4v-4l0.1-0.4-0.1-0.3v-0.2l0.1-1.1-0.1-0.3 0.1-0.2-0.1-0.4 0.1-0.7-0.1-1.8v-2.7l0.1-1.1-0.1-1.3v-5-5.4-0.6h0.8q0 0.1 0.2 0.3l5-0.3h1.8 0.3 0.3 0.5q0.5 0 0.8 0.2h0.1v-0.1-0.1h0.2 0.1l0.1 0.2-0.2 2.5 0.1 0.8v1.3l0.1 0.4h-0.1l0.1 0.3v1.2 0.3 0.1 0.6 0.3 0.3 0.8 0.4 0.1q0 0.3 0.1 0.3l-0.1 0.4v5.8 1.6 0.1l-0.1 0.6 0.1 0.2-0.1 0.7v0.7l-0.1 0.1 0.1 0.1-0.1 0.2h0.3v3h-0.1l-0.1-1h-0.1v1.4q0.3 0 0.3 0.1v7.1l-0.1 0.8h0.1 0.6 4.7l0.5-0.1 0.5 0.1h0.4l2.3-0.1v0.1h0.1l0.2-0.1h0.1q0.3 0 0.5 0.3l0.2-0.2h0.4v0.2l0.3-0.4q-0.2 0-0.2-0.6l0.1-0.2h-0.1v-0.1l0.1-0.3-0.1-0.7 0.1-0.4-0.1-0.5 0.1-0.3-0.1-0.8v-0.1h0.1l-0.1-0.4v-2.4l0.1-0.5-0.1-0.3h0.1l-0.1-0.1v-6.8l-0.1-1.8h0.1v-0.1l-0.1-0.3v-0.3l0.1-0.1h-0.1v-2.8l0.1-0.1-0.1-0.1v-7.9-1.2-0.1-0.7-0.5-0.1-0.1-0.1-0.1-0.7h0.3 2.3l0.5 0.1 0.1-0.1 3.4 0.2q0.3-0.1 0.3-0.2h2l2 0.1v1 2.9 6.4 7 5.5l0.1 2.1-0.1 0.5h0.1-0.1v3.6 0.2 0.3q-0.3 0-0.5 0.4v0.1h0.5l0.1 0.9-0.1 0.5 0.1 0.3 0.3-0.1h0.1l0.2 0.2h0.1q0-0.2 0.2-0.2h0.5l0.7 0.1 0.3-0.1v0.1-0.1l1.1 0.1 0.9-0.1 0.1 0.1 0.1-0.1 0.3 0.1 1-0.1h2.7q0.1 0 0.2 0.7l0.1 0.1v-0.7q0.1-0.2 0.4-0.2h0.2q0.5 0 0.5 0.4l0.2 1.4 0.1-0.2-0.2-1.5h0.4l0.4-0.1q0-0.1-0.4-0.1 0-0.2-0.2-0.2l0.1-0.3-0.1-0.9 0.1-0.2-0.1-0.3 0.1-0.7-0.1-0.1h0.1l-0.1-0.1v-0.2l0.1-0.5-0.1-0.9v-0.4-0.2-0.2-0.2-0.7-0.3-0.8-0.2-0.5q0-0.4 0.1-0.4l-0.1-0.3h0.1l-0.1-0.1v-0.1l0.1-0.2-0.1-0.5 0.1-0.1-0.1-0.4v-0.7-0.2-0.4-0.4-0.1-0.2-0.7-5.9-0.9-0.1-0.2-4.3-1.1l-0.1-1.9h0.1-0.1v-0.2l0.1-0.4-0.1-0.7v-0.8l0.1-0.2-0.1-0.3v-1.4q0-0.3 0.3-0.5zm9.2 0.7h-0.3v0.1h0.3zm-41.3 20.2h-0.2v1.1h0.1v-1.1zm-0.1 1.2h-0.1v0.3h0.1zm46.9-20.6l0.1-1.3h4.1l0.2 0.1 0.2-0.1 0.4 0.1 0.6-0.1v0.1l0.1-0.1 0.9 0.1h1.2 0.3 0.2 0.1 0.3 0.2 0.4 3.7 0.1 0.1l6.8-0.1h0.5l0.8 0.1 0.6-0.1 0.3 0.1 0.2-0.1 0.4 0.1 0.6-0.1 0.3 0.1 0.1-0.1h0.1v0.1l0.8-0.1h0.7v0.1h0.8 0.2l0.5-0.1 1.3 0.1h3.2v1.1q-0.3 1.3-0.3 3.6v5.5l-0.6 0.1h-1.9l-2.5 0.1v-0.1l-0.1 0.1q-0.6-0.1-0.6-0.2l-0.2 0.2-0.3-0.1-0.5 0.1q-0.4-0.1-0.4-0.2l-0.5 0.2-0.2-0.2-0.1 0.1h-1.5v-0.1l-0.1 0.1h-0.7l-0.1-0.1v0.1h-1.1l-0.3-0.1-0.3 0.1h-0.4l-0.1-0.1v0.1h-1.1l-0.1-0.1v0.1h-0.3v-0.1l-0.1 0.1h-0.5l-0.1-0.1v0.1h-0.6l-0.1-0.1v0.1h-0.1l-1.5-0.1h-1.1-2.2q0-0.2-0.2-0.2-0.1 0-0.1 0.2h-1.1l-0.2 0.3 0.9-0.1h0.2l0.1 0.5h-0.2v0.1h0.1v0.1q0 0.2-0.3 0.2 0.3 0 0.3 0.2l-0.1 0.2 0.1 0.1h0.1l-0.1 2.5v1.3l0.1 0.3h0.1l0.1-0.1h0.1q0.4 0 0.4 0.1 0.9-0.1 2.4-0.1h0.1 10.4 2l0.1 0.2v1.9l-0.2 1.5 0.1 0.7-0.1 1q0.1 1.2 0.1 2.9v2.2h-0.2v0.1l-2-0.2h-0.8-0.5-0.7-4.6l-0.5 0.1-0.5-0.1h-1.6-0.5-0.2-0.1-0.3-0.8-0.5l-0.5-0.1v0.1h-0.1l-0.2-0.1-0.4 0.1q-0.2-0.1-0.2-0.7-0.6 0.9-0.6 1.8v0.1q-0.3 0-0.3 0.2h0.3v0.2 0.4l0.1 0.2-0.1 1q0 0.2-0.4 0.2v0.1l0.4 0.3v0.8l-0.4 0.1v0.1h0.4v0.5q0 0.1 0.5 0.2h0.1-0.1v-0.2h4.9v0.2l0.2-0.2 0.8 0.1 0.1-0.1 0.3 0.1 0.5-0.1 0.4 0.1 0.1-0.1 0.5 0.1v-0.1h0.1v0.1h0.1l0.3-0.1 1.3 0.1h6l0.3-0.1 0.3 0.1h1.4 0.9 0.1 0.1 0.6 0.6q0.4 0 0.4-0.1 0.4 0.1 0.4 0.2v0.8l-0.1 0.9 0.1 0.2h-0.1l0.1 0.1-0.1 0.6 0.1 0.2-0.1 0.1 0.1 0.2-0.1 1.3 0.1 1.6-0.1 0.3 0.1 0.3h-0.1l0.1 0.2-0.1 0.1 0.1 0.2-0.1 1.3 0.1 0.9-0.1 0.1 0.1 0.2-0.1 0.7h-1.4-0.4-0.1-0.7-1.8l-1.8-0.2-3.6 0.1h-0.2l-0.3-0.1q-0.3 0.1-0.8 0.1h-1.6-0.3-0.3-3.8l-0.6 0.1-0.3-0.1v0.1l-0.3-0.1-0.4 0.1h-0.1v-0.1l-0.7 0.1h-0.7l-0.7-0.1-0.8 0.1h-0.6l-0.6-0.1-0.3 0.1-2-0.1-0.3 0.1-0.5-0.1-0.4 0.1-0.5-0.1h-0.4l-1.5 0.1-0.3-0.1 0.1-0.4h-0.2q0 0.5-0.9 0.5l-1.2-0.1v-0.1-0.7l0.1-1h-0.1l0.1-0.3v-1l0.1-0.9-0.1-0.3h0.1l-0.1-0.2 0.1-1.8v-0.5q0-0.4 0.1-0.4-0.1-0.7-0.1-3v-16.2q0.1-1.6 0.2-4.4l-0.1-0.3 0.1-0.2-0.1-0.3h0.1q-0.2-0.5-0.2-1v-0.3h0.1v0.1-0.2q0-0.3-0.1-0.3v-0.3-0.1-0.2l0.1-0.1-0.1-0.4 0.1-0.5-0.1-2.4 0.1-1.6v-0.2h-0.1v0.5h-0.2zm0.2 1.2v0.1h0.1q0.2-2 0.4-2 0.2 0 0.6 1.9h0.1v-0.1q-0.4-1.9-0.6-1.9h-0.1q-0.3 0-0.5 2zm1.3 0.4h-0.1v0.2h0.1zm0.1 0.3h-0.1v0.2l0.1 0.3v-0.1zm35.3-3.3h9.8v0.9 2.5 0.1 0.1l0.2 17.4v3.5l-0.1 0.2 0.1 0.3-0.1 0.2 0.1 0.3-0.1 0.1h0.1l-0.1 2.2v1.7l-0.1 0.3 0.1 0.2v0.2l-0.1 0.8h0.1l0.9-0.1h0.1l0.2 0.5q0.1 0 0.2-0.5h1l0.4 0.1 0.3-0.2 0.2 0.1 0.2-0.1 0.1 0.1 0.4-0.1 0.4 0.1 0.1-0.1 0.9 0.1 0.7-0.1 0.4 0.1h0.1v-0.1l0.3 0.1 4.4-0.1h1.3l0.7 0.1 0.5-0.1h0.2l0.4 0.1 0.2-0.1 0.5 0.1 0.2-0.1 0.3 0.1 0.9-0.1 0.3 0.1v-0.1l0.1 0.1 0.3-0.1 0.9 0.1 0.2-0.1 0.2 0.1 0.5-0.1 0.2 0.1 1-0.1h2l0.5 0.1v1.3l-0.1 3.5 0.2 4.1v0.1 0.3 0.2 0.4 0.2 0.1 0.3 0.4 0.2 0.1h-8.7l-0.2-0.1-0.3 0.1h-3.5-0.3-0.2-0.6-2.8q-1.4-0.2-3.2-0.2h-1l-0.1-0.1v0.1h-0.6l-1.2-0.1-1.3 0.1h-0.4-0.4-0.1q-2.6 0.2-4.6 0.2h-1.7l-2.8-0.1v-1.4-1.3-1.5-1.1l0.1-0.3-0.1-0.3v-0.7l0.1-0.2-0.1-0.1 0.1-1.1v-1.8l0.1-5.1-0.1-1.7 0.1-0.4h-0.1v-0.1l0.1-0.4-0.1-0.1 0.1-0.1v-2.9q0-4.9-0.2-7.5h0.1l-0.1-0.4v-3.7-0.3-0.2-0.1-0.6-8.4q0-0.2 1.3-0.2zm58.8 0l0.7-0.1v0.1q0 0.1-0.3 0.1v0.1h0.1l0.5-0.1 0.5 0.2v-0.1l0.4 0.1h3.4q0.2 0 2.1 0.7 1.2 0 2.4 2.8 0.2 0.7 0.2 1.4l-0.1 0.2 0.1 0.4v0.6h-0.1l0.1 0.1v0.1l-0.3 5.3 0.1 0.2-0.1 0.1q0.2 1 0.2 2.7v0.8l-0.2 0.2-2.4 0.1h-4.2l-0.1-0.1v0.1l-2.2-0.1h-0.5q-0.5 0-1-0.3-0.3 0-0.3-0.1v-0.4-0.1l0.1-2.4v-0.4-0.3h0.3v-0.2q-0.3 0-0.3-0.1v-0.3q0-0.1 0.2-0.1l-0.1-0.2v-0.1h0.1v-0.2l-0.1-0.2h-0.5l-0.5-0.1-0.4 0.1h-0.1l-0.8-0.1q0 0.2-0.2 0.2l-0.1-0.1-0.1 0.1h-0.1l-0.2-0.1-0.4 0.1v-0.1h-0.1v0.1h-0.1l-0.6-0.1q0-0.1-0.1-0.1h-0.1l0.1 0.1v0.1h-0.3v-0.2h-0.3q-0.2 0-0.2 0.2h-0.1v-0.2l-2.6 0.1h-2.5l-0.1-0.1v-0.2h0.2v-0.1h-0.2l-0.5 0.1 0.2 0.3v0.2q0 0.7-0.1 0.7h0.1v3l-0.1 0.1h0.1l-0.1 1.3v1.8l-0.1 2.6 0.1 0.2-0.1 0.3 0.1 0.4-0.1 0.6v1.3 0.7 0.1 0.7 1.7 0.5l-0.1 0.3 0.1 0.1-0.1 1v3.7l0.1 0.1v0.1q0.3-0.1 0.4-0.3h0.4l0.1 0.6q0-0.6 0.3-0.6l3.7 0.1h0.1 1.9 3.1q0.1 0 0.1 0.3h0.1 0.1 0.1l0.1-0.3q0.3 0 0.5 0.3l0.2-0.4q-0.4 0-0.4-0.5v-0.4h0.4l0.3-0.1v-0.1l-0.3-0.1h-0.3l-0.1-0.1v-2.3q0-1.6 0.4-1.6l1.1 0.1 9 0.1v2.2 3.3l-0.1 0.9 0.1 0.8v2.4q0 3.2-1.3 4.4-1.5 1.6-3.4 1.6h-0.4l-0.1-0.1v0.1h-0.3l-0.8 0.1-0.9-0.2h-5.8-1.6-0.1-0.5-1.1-0.2q-0.3-0.1-1.9-0.1h-5q-0.3 0-0.3-0.1l-0.1 0.1h-1.3l-0.3-0.1-0.3 0.1h-1.4q-0.8 0-1.7-0.6-0.3-0.3-0.9-0.5-1.5-1.3-1.5-2.1-0.4-0.7-0.4-1.6l0.1-0.2v-0.5-1.4-0.2-0.5-1.4l0.1-0.7h-0.1l0.1-1.1v-2.1-1.2l0.2-0.1-0.1-1.7v-0.1l-0.1-0.6 0.1-0.1-0.1-1.9v-2.4-1-0.1-0.7-10.3-0.3-0.1-0.1-1-2l0.1-0.2-0.1-0.3v-0.1q0.3-1.7 0.9-2.7 0.9-1.3 2.1-1.3v-0.2h-0.1v-0.1q0.7-0.5 1.9-0.5h1l0.3 0.1 0.1-0.1h0.1l2.6 0.3v-0.1h-0.1v-0.2h4.8l0.4 0.1 0.1-0.1 3 0.1h1.7l0.8-0.1 1.3 0.2 0.4-0.1h0.8v-0.1h-0.3zm-8.7 10h-0.2-0.1v0.1h0.3zm-1.3 0l-0.1 0.1 0.6-0.1zm3.1 0h-0.3l0.3 0.1h0.2zm1 0.1h-0.4 0.4zm0.7 0.1h-0.3 0.3zm1.2 0.1h-0.2v0.1h0.3q0-0.1-0.1-0.1zm0.6 0.1h-0.3l0.2 0.1h0.1zm40.3-10.4l0.4-0.1 0.3 0.1v-0.1 0.1h1.5l0.9 0.1 0.7-0.2v0.2l0.6-0.2q0.3 0 0.3 0.3 0.4 0.2 2.2 0.5 0.6 0.4 0.6 0.9 0.5 1 0.8 1.2h0.1l0.1-0.1q0.3 0 0.3 1.7h0.1q0 0.4 0.3 0.4v0.2l-0.1 0.1 0.1 0.1v0.7 2.1 4.7l-0.1 0.5 0.1 0.5v1.6l-0.1 0.6 0.1 0.7-0.1 0.7 0.1 0.4-0.1 1.6 0.1 0.5-0.1 1v1.8l0.1 14 0.1 0.9q-0.4 2.1-1.6 3.3-1.2 1.2-4 1.2h-1.9l-5-0.1h-3.4l-1.7 0.1-0.1-0.1-0.6 0.1q-8.5 0-8.6 0.1v0.1h-0.2q-1.7 0-3.5-1.9-1-1.2-1-3.6l-0.1-2 0.1-0.4q-0.2-0.3-0.2-6.5l0.1-17-0.1-2.2h0.1-0.1l0.1-0.3-0.1-2.1v-0.8q0-3.6 3-4.9h0.1l0.3 0.1h0.7v-0.2h-0.3v-0.1q0.7-0.2 1.7-0.2h0.5v0.1 0.1l0.3-0.1 0.2 0.1q0.8-0.2 1.7-0.2h6l0.8-0.1v0.1-0.1h0.7l0.1 0.1v-0.1h1.7l0.1 0.1v-0.1zm-17.4 0.3l-0.2 0.1h0.3v-0.1zm-0.4 0.1h-0.5v0.1h0.2l0.4-0.1zm13.8 9.8l-4.3 0.3h-0.3-0.2-0.3-0.1-0.1-0.1-0.1-0.4-0.3-0.7-0.2-1v0.6l-0.1 0.3 0.2 0.3-0.1 1.5 0.1 2.7v0.1 2.5 0.1 0.1q-0.2 1.8-0.2 3.2v1l0.2 5.2v0.1 0.4 1 0.1 0.2 0.4 0.5q0 0.6-0.1 0.6h0.1v0.3l-0.1 0.4 1.3-0.1h0.2 0.2l0.2 1h0.1v-1l4.9-0.1h0.4 0.3 1.6 0.3 0.6 0.5l0.2 0.1h0.1l0.1-0.1-0.2-0.8 0.1-0.6-0.1-1.2v-0.1h0.2v0.8h0.1v-0.3q-0.3-2.9-0.3-4.2v-3.5l0.1-0.1h-0.1l0.1-0.4-0.1-1.4v-1.6l0.1-0.3h-0.1l0.1-1.4v-3.1h0.1l0.2 1.4v-0.2q-0.1-2-0.4-2l0.1-1.1v-0.7l0.2-0.3h-0.1v-0.2q0-0.2 0.4-0.2v-0.1q-0.5 0-0.6-0.1 0 0.2-0.8 0.3h-1.8q0-0.3-0.1-0.3zm3.2 4.9h-0.1v0.3h0.1zm0.1 0.5h-0.2l0.2 1.1v-0.5zm0.2 1.2h-0.1v0.3h0.1zm0 0.4h-0.1v0.3l0.1 0.2v-0.1zm0.1 1.1l-0.1 0.1 0.1 0.1zm-0.5 11.7v0.3zm68.8-25.6l-0.1-0.1v0.1l0.1 0.3zm-31.7 22.3l-0.1 0.2 0.1 0.1zm0-0.3h-0.1v0.2h0.1zm-0.1-0.7l-0.1-0.2v0.2l0.1 0.1zm0-0.5l-0.2-0.1v0.1l0.2 0.1zm-0.1-0.7h-0.1v0.2h0.1zm-0.1-0.8v0.4l0.1 0.1v-0.1zm-0.1-0.7v0.4 0.3h0.1v-0.1zm-8.5-12.3h-0.1v0.2h0.1zm40.9 29.7v12.5h-0.1l-6.5-6.8-2.7-2.9-1-1-0.1-0.1q-0.2-1.5-0.4-4.6v-0.1h0.1l-0.1-0.7v-1.6l-0.1-0.4h0.1v-0.1l-0.1-1.8v-1.6l0.1-0.1-0.1-0.1v-1l0.2-0.5-0.2-0.7v-1.1l0.1-0.8-0.1-0.9v-4.1l0.1-1-0.1-0.2 0.1-0.5-0.1-0.6 0.1-0.3-0.1-0.3 0.1-0.3-0.1-0.5 0.1-0.8-0.1-0.1 0.1-0.4-0.1-0.2 0.1-0.3 0.1-5.2q0.2 0 0.2-0.1l-0.3-0.2-0.5 0.2h-0.4-0.8q-0.4 0-0.4-0.5h-0.1l-0.1 0.4-2.2-0.1-2.3 0.1-2.8-0.1h-0.7v0.2h-0.8-0.1v1.1q-0.4 0.4-0.4 0.7v0.1q0 0.8 0.4 2.7l-0.1 1.6v11l0.1 13.9h-1.8l-0.7 0.1-0.5-0.1-0.2 0.1-0.3-0.1-0.7 0.1-1.7-0.2-0.1 0.1-0.4-0.1-3 0.1-0.3 0.1-0.3-0.1-0.3 0.1-0.5-0.2v-2.5-3.5l-0.1-1.6 0.1-0.1v-0.1l-0.1-0.2v-0.3h0.1l0.1 0.5h0.1l0.1-0.8q0-1.4-0.1-2.2v-0.2-0.1q-0.2-2.1-0.3-6.4h0.1-0.1v-2.1h0.1l-0.1-0.1v-1l0.1-2h0.1l0.2 3.5v-0.3q-0.2-3.7-0.2-9v-0.6h0.1l0.1 1.5h0.2l-0.2-1.8h0.2v-0.2q-0.4 0-0.4-1.1l0.1-0.1v-0.2l-0.7 0.1-4.7-0.1h-3.2l-0.3 0.1-0.2-0.1h-0.1l-0.6 0.1-0.6-0.1h-0.4v0.1h-0.1v-0.1h-0.1q-0.1 0-0.2 0.5l-0.3 0.2v0.1q0.2 0 0.2 0.4h-0.3q0 0.1 0.3 0.1v0.6h0.1q-0.1 0.4-0.1 1.5v5.2l-0.1 5.7h-0.1 0.1v1.9h-0.1l0.1 0.1-0.1 3.9 0.1 0.8-0.1 1.5 0.1 2.6h-0.1 0.1v0.2l-0.1 0.1h0.1v0.7l0.1 3.2-0.1 0.1v0.1l0.1 0.2v1.1h-0.1l0.1 0.1v0.1q0 0.2-0.2 0.2l-7.4-0.2-0.2 0.1-0.7-0.1h-1.1-0.3-0.4q-0.3 0-0.3-0.5v-1l0.1-0.2-0.1-0.4 0.1-13.1-0.1-0.5 0.1-1v-0.2l-0.1-1 0.1-1.2v-1.5l-0.1-1 0.1-0.1v-0.1q-0.1-1.8-0.1-5.4v-0.4h0.1v-0.4h-0.1l0.1-1.7q-0.2-2.7-0.2-5.2v-1.2l0.1-0.2-0.1-0.3v-3l0.1-0.4-0.1-0.3v-1.5q0 0 0.1-0.1v-10.4l6.6 6.8 2.6 2.9 0.7 0.7h2.5l0.9-0.1h1.9l4.1 0.1h4.1 2.1 0.2 0.6 0.1 0.6 0.1 1 0.8l4.6-0.1h0.1 0.1 0.6 10.9 0.6 0.1l4.8 0.3q0-0.2 0.2-0.2 2.1 0.9 2.1 1.4 1 1.2 1 1.7v0.7h0.1v-0.6h0.1q0.3 0.8 0.3 1.6v1.7l-0.1 5.7v0.1 0.2l-0.1 3.2v0.4l0.1 7.7v3.5l-0.1 11v0.9q0 0.8 0.2 1zm4.5-38.9v-1.2h4.1 0.3 0.2 0.4 0.5 0.1 0.9 1.3l0.2 0.1 0.3-0.1v0.1l0.1-0.1h0.2l0.2 0.1 0.4-0.1h3.8v0.1l0.1-0.1h0.1 6.7 0.5 0.9 0.6 0.2 0.3 0.3 0.6 0.1 0.3 0.2 0.7 0.8v0.1l0.7-0.1 0.2 0.1 0.6-0.1h1.2 3.3v1.1q-0.4 1.3-0.4 3.6v5.6h-0.6-1.8l-2.6 0.1v-0.1 0.1h-0.1q-0.6 0-0.6-0.1l-0.2 0.1-0.3-0.1-0.4 0.1q-0.5-0.1-0.5-0.1l-0.4 0.1-0.3-0.1h-1.5-0.1-0.8-0.1-1-0.4-0.3-0.4-0.1-1.1-0.1-0.2-0.1-0.1-0.5-0.1-0.6-0.1-0.1l-1.4-0.1-1.1 0.1h-2.3q0-0.3-0.1-0.3-0.1 0-0.1 0.2l-0.1 0.1h-1l-0.3 0.2h0.9 0.2l0.1 0.4-0.2 0.1v0.1h0.1v0.1q0 0.1-0.2 0.1v0.1q0.2 0 0.2 0.1v0.3h0.1l-0.1 2.6v1.2l0.2 0.3 0.2-0.1q0.5 0.1 0.5 0.1 0.9-0.1 2.4-0.1v0.1l0.1-0.1 10.3 0.1h2.1l0.1 0.1v1.9l-0.2 1.6v0.7 0.9q0.1 1.2 0.1 3l-0.1 2.2h-0.1l-2.1-0.1h-0.8l-0.5-0.1-0.6 0.1h-4.7l-0.5 0.1-0.4-0.1h-1.6l-0.6-0.1-0.2 0.1v-0.1l-0.4 0.1-0.7-0.1-0.6 0.1-0.5-0.2v0.1h-0.3l-0.4 0.1q-0.2-0.1-0.2-0.7-0.6 0.9-0.6 1.8h0.1q-0.4 0.1-0.4 0.2h0.4v0.3l-0.1 0.4 0.1 0.2v1q0 0.1-0.5 0.1v0.1l0.5 0.4v0.8h-0.5v0.1h0.5v0.5q0 0.2 0.4 0.3h0.1l-0.1-0.1v-0.2h4.9v0.2l0.2-0.2 0.9 0.1v-0.1h0.1l0.2 0.1 0.5-0.1 0.4 0.1 0.2-0.1 0.4 0.1 0.1-0.1 0.1 0.1 0.3-0.1 1.4 0.1h5.9l0.4-0.1 0.3 0.1h1.3l1 0.1 0.1-0.1 0.7 0.1h0.5q0.5 0 0.5-0.2 0.3 0.2 0.3 0.3v0.8 0.8 0.3 0.1 0.6 0.2 0.2 1.4 1.5 0.4 0.3 0.1 0.1 0.2 1.4 0.9 0.1 0.2 0.7h-1.5l-0.4-0.1v0.1l-0.8-0.1h-1.8l-1.8-0.1h-3.5l-0.3 0.1-0.3-0.1q-0.3 0.1-0.8 0.1h-1.5l-0.3-0.1-0.4 0.1h-3.7-0.7-0.2-0.1-0.3-0.3-0.2-0.7-0.7-0.7-0.7-0.7-0.6-0.3-1.9-0.4-0.5-0.3-0.6-0.4-1.4l-0.3-0.1v-0.3h-0.1q0 0.4-0.9 0.4h-1.2v-0.1l-0.1-0.8 0.1-0.9v-0.1-0.3-1l0.1-0.9-0.1-0.2 0.1-0.1-0.1-0.1 0.1-1.8v-0.6q0.1-0.4 0.2-0.4-0.2-0.7-0.2-3v-16.2q0.2-1.5 0.3-4.4l-0.1-0.3 0.1-0.2-0.1-0.2h0.1q-0.3-0.6-0.3-1v-0.4h0.1v0.2h0.1v-0.3q0-0.3-0.2-0.3v-0.2l0.1-0.1-0.1-0.1v-0.2l0.2-0.1-0.1-0.3v-0.6l-0.1-2.4 0.1-1.6v-0.1l-0.1 0.4h-0.1zm0.2 1.3v0.1q0.2-2 0.5-2 0.2 0 0.6 1.8v0.1-0.2q-0.3-1.9-0.6-1.9-0.3 0-0.5 2.1zm1.2 0.3v0.3zm0.1 0.3h-0.1v0.1l0.1 0.3h0.1v-0.1z"/>
	</g>
</svg>